<?xml version="1.0" encoding="UTF-8"?>
<svg width="37px" height="37px" viewBox="0 0 37 37" version="1.1" xmlns="http://www.w3.org/2000/svg" xmlns:xlink="http://www.w3.org/1999/xlink">
    <!-- Generator: Sketch 46.2 (44496) - http://www.bohemiancoding.com/sketch -->
    <title>icon/library/brown</title>
    <desc>Created with Sketch.</desc>
    <defs>
        <linearGradient x1="50%" y1="2.82804528%" x2="50%" y2="100%" id="linearGradient-1">
            <stop stop-color="#E4B68E" offset="0%"></stop>
            <stop stop-color="#FD963D" offset="100%"></stop>
        </linearGradient>
    </defs>
    <g id="各报告样式" stroke="none" stroke-width="1" fill="none" fill-rule="evenodd">
        <g id="周边配套评测报告" transform="translate(-107.000000, -2834.000000)">
            <g id="教育配套评测" transform="translate(6.000000, 2815.000000)">
                <g id="周边交通评测标题" transform="translate(102.000000, 20.000000)">
                    <g id="icon/library/brown">
                        <circle id="circle" stroke="#E4B68E" cx="17.5" cy="17.5" r="17.5"></circle>
                        <g id="ic/local_library/grey600" transform="translate(6.000000, 5.000000)">
                            <g id="ic_local_library_24px">
                                <polygon id="Shape" points="0 0 24 0 24 24 0 24"></polygon>
                                <path d="M12,11.55 C9.64,9.35 6.48,8 3,8 L3,19 C6.48,19 9.64,20.35 12,22.55 C14.36,20.36 17.52,19 21,19 L21,8 C17.52,8 14.36,9.35 12,11.55 Z M12,8 C13.66,8 15,6.66 15,5 C15,3.34 13.66,2 12,2 C10.34,2 9,3.34 9,5 C9,6.66 10.34,8 12,8 Z" id="Shape" fill="url(#linearGradient-1)" fill-rule="nonzero"></path>
                            </g>
                        </g>
                    </g>
                </g>
            </g>
        </g>
    </g>
</svg>