<?xml version="1.0" encoding="UTF-8"?>
<svg width="37px" height="37px" viewBox="0 0 37 37" version="1.1" xmlns="http://www.w3.org/2000/svg" xmlns:xlink="http://www.w3.org/1999/xlink">
    <!-- Generator: Sketch 46.2 (44496) - http://www.bohemiancoding.com/sketch -->
    <title>icon/local_hospital/red</title>
    <desc>Created with Sketch.</desc>
    <defs>
        <linearGradient x1="50%" y1="1.9013074%" x2="50%" y2="100%" id="linearGradient-1">
            <stop stop-color="#F894B4" offset="0%"></stop>
            <stop stop-color="#E5424C" offset="100%"></stop>
        </linearGradient>
    </defs>
    <g id="各报告样式" stroke="none" stroke-width="1" fill="none" fill-rule="evenodd">
        <g id="周边配套评测报告" transform="translate(-107.000000, -2310.000000)">
            <g id="医疗配套评测" transform="translate(6.000000, 2291.000000)">
                <g id="周边交通评测标题" transform="translate(102.000000, 20.000000)">
                    <g id="icon/local_hospital/red">
                        <circle id="circle" stroke="#EB7590" cx="17.5" cy="17.5" r="17.5"></circle>
                        <g id="ic/local_hospital/grey600" transform="translate(6.000000, 5.000000)">
                            <g id="ic_local_hospital_24px">
                                <polygon id="Shape" points="0 0 24 0 24 24 0 24"></polygon>
                                <path d="M19,3 L5,3 C3.9,3 3.01,3.9 3.01,5 L3,19 C3,20.1 3.9,21 5,21 L19,21 C20.1,21 21,20.1 21,19 L21,5 C21,3.9 20.1,3 19,3 Z M18,14 L14,14 L14,18 L10,18 L10,14 L6,14 L6,10 L10,10 L10,6 L14,6 L14,10 L18,10 L18,14 Z" id="Shape" fill="url(#linearGradient-1)" fill-rule="nonzero"></path>
                            </g>
                        </g>
                    </g>
                </g>
            </g>
        </g>
    </g>
</svg>