<?xml version="1.0" encoding="UTF-8"?>
<svg width="37px" height="37px" viewBox="0 0 37 37" version="1.1" xmlns="http://www.w3.org/2000/svg" xmlns:xlink="http://www.w3.org/1999/xlink">
    <!-- Generator: Sketch 46.2 (44496) - http://www.bohemiancoding.com/sketch -->
    <title>icon/train/purple</title>
    <desc>Created with Sketch.</desc>
    <defs>
        <linearGradient x1="50%" y1="0%" x2="50%" y2="100%" id="linearGradient-1">
            <stop stop-color="#AB91FA" offset="0%"></stop>
            <stop stop-color="#2A61FF" offset="100%"></stop>
        </linearGradient>
    </defs>
    <g id="各报告样式" stroke="none" stroke-width="1" fill="none" fill-rule="evenodd">
        <g id="周边配套评测报告" transform="translate(-107.000000, -1184.000000)">
            <g id="周边交通评测" transform="translate(0.000000, 1165.000000)">
                <g id="周边交通评测标题" transform="translate(108.000000, 20.000000)">
                    <g id="icon/train/purple">
                        <circle id="circle" stroke="#5880F3" cx="17.5" cy="17.5" r="17.5"></circle>
                        <g id="ic/train/grey600" transform="translate(6.000000, 6.000000)">
                            <g id="ic_train_24px">
                                <path d="M12,2 C8,2 4,2.5 4,6 L4,15.5 C4,17.43 5.57,19 7.5,19 L6,20.5 L6,21 L8.23,21 L10.23,19 L14,19 L16,21 L18,21 L18,20.5 L16.5,19 C18.43,19 20,17.43 20,15.5 L20,6 C20,2.5 16.42,2 12,2 Z M7.5,17 C6.67,17 6,16.33 6,15.5 C6,14.67 6.67,14 7.5,14 C8.33,14 9,14.67 9,15.5 C9,16.33 8.33,17 7.5,17 Z M11,10 L6,10 L6,6 L11,6 L11,10 Z M13,10 L13,6 L18,6 L18,10 L13,10 Z M16.5,17 C15.67,17 15,16.33 15,15.5 C15,14.67 15.67,14 16.5,14 C17.33,14 18,14.67 18,15.5 C18,16.33 17.33,17 16.5,17 Z" id="Shape" fill="url(#linearGradient-1)" fill-rule="nonzero"></path>
                                <polygon id="Shape" points="0 0 24 0 24 24 0 24"></polygon>
                            </g>
                        </g>
                    </g>
                </g>
            </g>
        </g>
    </g>
</svg>