<?xml version="1.0" encoding="UTF-8"?>
<svg width="37px" height="37px" viewBox="0 0 37 37" version="1.1" xmlns="http://www.w3.org/2000/svg" xmlns:xlink="http://www.w3.org/1999/xlink">
    <!-- Generator: Sketch 46.2 (44496) - http://www.bohemiancoding.com/sketch -->
    <title>icon/gas_station/steelblue</title>
    <desc>Created with Sketch.</desc>
    <defs>
        <linearGradient x1="50%" y1="3.03730867%" x2="50%" y2="97.4190848%" id="linearGradient-1">
            <stop stop-color="#5281D0" offset="0%"></stop>
            <stop stop-color="#4B5970" offset="100%"></stop>
        </linearGradient>
    </defs>
    <g id="各报告样式" stroke="none" stroke-width="1" fill="none" fill-rule="evenodd">
        <g id="周边配套评测报告" transform="translate(-107.000000, -3919.000000)">
            <g id="不利因素评测" transform="translate(6.000000, 3901.000000)">
                <g id="周边交通评测标题" transform="translate(102.000000, 19.000000)">
                    <g id="icon/gas_station/steelblue">
                        <circle id="circle" stroke="#4B5970" cx="17.5" cy="17.5" r="17.5"></circle>
                        <g id="ic/local_gas_station/grey600" transform="translate(6.000000, 6.000000)">
                            <g id="ic_local_gas_station_24px">
                                <polygon id="Shape" points="0 0 24 0 24 24 0 24"></polygon>
                                <path d="M19.77,7.23 L19.78,7.22 L16.06,3.5 L15,4.56 L17.11,6.67 C16.17,7.03 15.5,7.93 15.5,9 C15.5,10.38 16.62,11.5 18,11.5 C18.36,11.5 18.69,11.42 19,11.29 L19,18.5 C19,19.05 18.55,19.5 18,19.5 C17.45,19.5 17,19.05 17,18.5 L17,14 C17,12.9 16.1,12 15,12 L14,12 L14,5 C14,3.9 13.1,3 12,3 L6,3 C4.9,3 4,3.9 4,5 L4,21 L14,21 L14,13.5 L15.5,13.5 L15.5,18.5 C15.5,19.88 16.62,21 18,21 C19.38,21 20.5,19.88 20.5,18.5 L20.5,9 C20.5,8.31 20.22,7.68 19.77,7.23 Z M12,10 L6,10 L6,5 L12,5 L12,10 Z M18,10 C17.45,10 17,9.55 17,9 C17,8.45 17.45,8 18,8 C18.55,8 19,8.45 19,9 C19,9.55 18.55,10 18,10 Z" id="Shape" fill="url(#linearGradient-1)" fill-rule="nonzero"></path>
                            </g>
                        </g>
                    </g>
                </g>
            </g>
        </g>
    </g>
</svg>