<?xml version="1.0" encoding="UTF-8"?>
<svg width="37px" height="37px" viewBox="0 0 37 37" version="1.1" xmlns="http://www.w3.org/2000/svg" xmlns:xlink="http://www.w3.org/1999/xlink">
    <!-- Generator: Sketch 46.2 (44496) - http://www.bohemiancoding.com/sketch -->
    <title>icon/three/red</title>
    <desc>Created with Sketch.</desc>
    <defs>
        <linearGradient x1="50%" y1="1.9013074%" x2="50%" y2="100%" id="linearGradient-1">
            <stop stop-color="#F894B4" offset="0%"></stop>
            <stop stop-color="#E5424C" offset="100%"></stop>
        </linearGradient>
    </defs>
    <g id="各报告样式" stroke="none" stroke-width="1" fill="none" fill-rule="evenodd">
        <g id="施工质量评测报告" transform="translate(-128.000000, -2500.000000)">
            <g id="地基基础工程-copy-2" transform="translate(6.000000, 2479.000000)">
                <g id="周边环境" transform="translate(9.000000, 0.000000)">
                    <g id="周边交通评测标题" transform="translate(114.000000, 22.000000)">
                        <g id="icon/three/red">
                            <circle id="circle" stroke="#EB7590" cx="17.5" cy="17.5" r="17.5"></circle>
                            <g id="ic/terrain/grey600-copy-2" transform="translate(5.000000, 5.000000)">
                                <polygon id="Shape" points="0 0 24 0 24 24 0 24"></polygon>
                                <path d="M10.82,9.991 L11.849,9.991 C12.1430015,9.991 12.4299986,9.97000021 12.71,9.928 C12.9900014,9.88599979 13.2454988,9.8055006 13.4765,9.6865 C13.7075012,9.5674994 13.8929993,9.39950108 14.033,9.1825 C14.1730007,8.96549891 14.243,8.68200175 14.243,8.332 C14.243,7.88399776 14.0645018,7.51300147 13.7075,7.219 C13.3504982,6.92499853 12.9130026,6.778 12.395,6.778 C11.9049976,6.778 11.4990016,6.91099867 11.177,7.177 C10.8549984,7.44300133 10.6450005,7.77199804 10.547,8.164 L7.082,7.45 C7.25000084,6.80599678 7.50199832,6.25650227 7.838,5.8015 C8.17400168,5.34649772 8.57299769,4.9790014 9.035,4.699 C9.49700231,4.4189986 10.0114972,4.21250067 10.5785,4.0795 C11.1455028,3.94649933 11.7439969,3.88 12.374,3.88 C13.0320033,3.88 13.665497,3.96049919 14.2745,4.1215 C14.883503,4.2825008 15.4189977,4.53449828 15.881,4.8775 C16.3430023,5.22050171 16.7104986,5.65099741 16.9835,6.169 C17.2565014,6.68700259 17.393,7.30299643 17.393,8.017 C17.393,8.84300413 17.1760022,9.54999706 16.742,10.138 C16.3079978,10.7260029 15.6780041,11.1039992 14.852,11.272 L14.852,11.335 C15.3000022,11.3910003 15.6954983,11.5239989 16.0385,11.734 C16.3815017,11.9440011 16.6719988,12.2029985 16.91,12.511 C17.1480012,12.8190015 17.3299994,13.168998 17.456,13.561 C17.5820006,13.953002 17.645,14.3659978 17.645,14.8 C17.645,15.5420037 17.5015014,16.1929972 17.2145,16.753 C16.9274986,17.3130028 16.5425024,17.7784981 16.0595,18.1495 C15.5764976,18.5205019 15.0095033,18.7969991 14.3585,18.979 C13.7074967,19.1610009 13.0180036,19.252 12.29,19.252 C10.9599933,19.252 9.81550479,18.9440031 8.8565,18.328 C7.89749521,17.7119969 7.26400154,16.7390067 6.956,15.409 L10.274,14.632 C10.3860006,15.1640027 10.6134983,15.5839985 10.9565,15.892 C11.2995017,16.2000015 11.8069966,16.354 12.479,16.354 C13.1650034,16.354 13.6724984,16.1755018 14.0015,15.8185 C14.3305016,15.4614982 14.495,15.0030028 14.495,14.443 C14.495,14.0229979 14.4075009,13.6975012 14.2325,13.4665 C14.0574991,13.2354988 13.8300014,13.0640006 13.55,12.952 C13.2699986,12.8399994 12.9550018,12.7735001 12.605,12.7525 C12.2549982,12.7314999 11.9050018,12.721 11.555,12.721 L10.82,12.721 L10.82,9.991 Z" id="3" fill="url(#linearGradient-1)" fill-rule="evenodd"></path>
                            </g>
                        </g>
                    </g>
                </g>
            </g>
        </g>
    </g>
</svg>