<?xml version="1.0" encoding="UTF-8"?>
<svg width="37px" height="37px" viewBox="0 0 37 37" version="1.1" xmlns="http://www.w3.org/2000/svg" xmlns:xlink="http://www.w3.org/1999/xlink">
    <!-- Generator: Sketch 46.2 (44496) - http://www.bohemiancoding.com/sketch -->
    <title>icon/two/green</title>
    <desc>Created with Sketch.</desc>
    <defs>
        <linearGradient x1="50%" y1="1.9013074%" x2="50%" y2="100%" id="linearGradient-1">
            <stop stop-color="#B3E4BB" offset="0%"></stop>
            <stop stop-color="#3B9A65" offset="100%"></stop>
        </linearGradient>
    </defs>
    <g id="各报告样式" stroke="none" stroke-width="1" fill="none" fill-rule="evenodd">
        <g id="施工质量评测报告" transform="translate(-107.000000, -2003.000000)">
            <g id="地基基础工程-copy" transform="translate(6.000000, 1982.000000)">
                <g id="周边环境" transform="translate(9.000000, 0.000000)">
                    <g id="周边交通评测标题" transform="translate(93.000000, 22.000000)">
                        <g id="icon/two/green">
                            <circle id="circle" stroke="#9ECE95" cx="17.5" cy="17.5" r="17.5"></circle>
                            <g id="ic/terrain/grey600-copy" transform="translate(5.000000, 5.000000)">
                                <polygon id="Shape" points="0 0 24 0 24 24 0 24"></polygon>
                                <path d="M7.313,15.661 L13.088,10.474 C13.3820015,10.2079987 13.6759985,9.90700168 13.97,9.571 C14.2640015,9.23499832 14.411,8.84300224 14.411,8.395 C14.411,7.89099748 14.2290018,7.49550144 13.865,7.2085 C13.5009982,6.92149857 13.0740024,6.778 12.584,6.778 C11.9959971,6.778 11.5375016,6.95999818 11.2085,7.324 C10.8794984,7.68800182 10.6940002,8.13599734 10.652,8.668 L7.502,8.437 C7.54400021,7.66699615 7.7049986,6.99850284 7.985,6.4315 C8.2650014,5.86449716 8.63599769,5.39200189 9.098,5.014 C9.56000231,4.63599811 10.1024969,4.35250094 10.7255,4.1635 C11.3485031,3.97449905 12.0239964,3.88 12.752,3.88 C13.4240034,3.88 14.0539971,3.97449905 14.642,4.1635 C15.2300029,4.35250094 15.7409978,4.63249814 16.175,5.0035 C16.6090022,5.37450185 16.9484988,5.8399972 17.1935,6.4 C17.4385012,6.9600028 17.561,7.61099629 17.561,8.353 C17.561,8.82900238 17.5120005,9.25949807 17.414,9.6445 C17.3159995,10.0295019 17.1795009,10.3794984 17.0045,10.6945 C16.8294991,11.0095016 16.6230012,11.2999987 16.385,11.566 C16.1469988,11.8320013 15.8880014,12.0909987 15.608,12.343 L11.093,16.228 L17.687,16.228 L17.687,19 L7.313,19 L7.313,15.661 Z" id="2" fill="url(#linearGradient-1)" fill-rule="evenodd"></path>
                            </g>
                        </g>
                    </g>
                </g>
            </g>
        </g>
    </g>
</svg>